<?xml version="1.0" encoding="utf-8"?>
<!-- Generator: Adobe Illustrator 24.0.3, SVG Export Plug-In . SVG Version: 6.00 Build 0)  -->
<!DOCTYPE svg PUBLIC "-//W3C//DTD SVG 1.1//EN" "http://www.w3.org/Graphics/SVG/1.1/DTD/svg11.dtd" [
	<!ENTITY ns_extend "http://ns.adobe.com/Extensibility/1.0/">
	<!ENTITY ns_ai "http://ns.adobe.com/AdobeIllustrator/10.0/">
	<!ENTITY ns_graphs "http://ns.adobe.com/Graphs/1.0/">
	<!ENTITY ns_vars "http://ns.adobe.com/Variables/1.0/">
	<!ENTITY ns_imrep "http://ns.adobe.com/ImageReplacement/1.0/">
	<!ENTITY ns_sfw "http://ns.adobe.com/SaveForWeb/1.0/">
	<!ENTITY ns_custom "http://ns.adobe.com/GenericCustomNamespace/1.0/">
	<!ENTITY ns_adobe_xpath "http://ns.adobe.com/XPath/1.0/">
]>
<svg version="1.1" id="Layer_1" xmlns:x="&ns_extend;" xmlns:i="&ns_ai;" xmlns:graph="&ns_graphs;"
	 xmlns="http://www.w3.org/2000/svg" xmlns:xlink="http://www.w3.org/1999/xlink" x="0px" y="0px" viewBox="0 0 903.2 621.6"
	 style="enable-background:new 0 0 903.2 621.6;" xml:space="preserve">
<style type="text/css">
	.st0{fill:#4D4D4D;stroke:#000000;stroke-width:1;stroke-miterlimit:4;}
	.st1{fill:#4D4D4D;stroke:#000000;}
	.st2{stroke:#000000;}
	.st3{fill:url(#SVGID_1_);stroke:#000000;stroke-width:1.187;}
	.st4{fill:#FF0000;stroke:#000000;}
	.st5{fill:url(#SVGID_2_);stroke:#000000;stroke-width:0.866;}
	.st6{fill:url(#SVGID_3_);stroke:url(#SVGID_4_);}
	.st7{fill:#FFFFFF;stroke:#000000;stroke-width:1.065;}
	.st8{fill:url(#SVGID_5_);stroke:#000000;}
	.st9{fill:url(#SVGID_6_);stroke:#000000;}
	.st10{opacity:0.529;fill:url(#SVGID_7_);enable-background:new    ;}
	.st11{fill:url(#SVGID_8_);stroke:#000000;}
	.st12{opacity:0.854;filter:url(#n);enable-background:new    ;}
	.st13{fill:#FFFFFF;}
	.st14{opacity:0.854;filter:url(#m);enable-background:new    ;}
	.st15{font-family:'Arial-BoldMT';}
	.st16{font-size:32.001px;}
	.st17{fill:none;stroke:#000000;}
</style>
<metadata>
	<sfw  xmlns="&ns_sfw;">
		<slices></slices>
		<sliceSourceBounds  bottomLeftOrigin="true" height="621.6" width="903.2" x="78.5" y="71.6"></sliceSourceBounds>
	</sfw>
</metadata>
<filter  height="3.5651" id="n" width="2.5879" x="-.79396" y="-1.2825">
	<feGaussianBlur  stdDeviation="2.767438"></feGaussianBlur>
</filter>
<filter  height="3.5651" id="m" width="2.5879" x="-.79396" y="-1.2825">
	<feGaussianBlur  stdDeviation="2.767438"></feGaussianBlur>
</filter>
<g>
	<g>
		<polygon class="st0" points="450.6,491.1 598.3,559.5 596,564.5 448.3,496.2 		"/>
		<path class="st1" d="M446.3,515.3c15.7,7.1,37.5,22.6,49.3,29.5c4.8,2.8,94.9,44.5,142,67.3c3.4,1.7,6.3-1.6,13.6-7.5
			c1.4-1.2,6.1-0.7,9.4,0.9c3.4,1.6-8.8,12-10.5,12.9c-2.5,1.2-12,4-16,2.1c-47.8-23-96.8-44.8-144-69.3
			c-16.5-8.6-31.3-21.4-47.1-30.1C441.2,520.1,444.5,514.5,446.3,515.3L446.3,515.3z"/>
		<path class="st1" d="M524.4,504.3h-6.1c0,0,8.2,20.4,19,18.4c6.4-1.2,14.3,0.3,18.3,3.8c5.9,5.1,16.3,26.4,16.3,26.4
			c2.3,2,10.1,17.9,16.1,28.9c2.9,5.3,8,12.9,11.8,15.7c1.8,1.3,6.6,0.9,6.1-0.6c-1.2-4.3-8.7-9.8-11.9-17.5
			c-2.8-6.8-15.7-30.8-17.3-33.4c-1.6-2.6-10.6-17.8-15.9-22.9c-4.9-4.7-12-8.5-23.1-7.8C529.4,515.7,524.4,504.3,524.4,504.3
			L524.4,504.3z"/>
		<path class="st1" d="M388.5,467.8H379c0,0,12.8,18.7,29.4,16.8c10-1.1,22.1,0.2,28.3,3.4c9.2,4.7,34.3,20.4,34.3,20.4
			c3.6,1.8,11.2,27.3,17.4,35.2c4.6,9.5,9.1,2,5-2.5c-4.3-6.2-12.7-31.5-17.8-36.2c0,0-22.7-15.4-31-20.1
			c-7.5-4.3-18.6-7.8-35.8-7.1C396.1,478.2,388.5,467.8,388.5,467.8L388.5,467.8z"/>
		<path class="st1" d="M348.9,441.5h9.5c0,0-12.8,18.7-29.4,16.8c-10-1.1-22.1,0.2-28.3,3.4c-9.2,4.7-26.7,22.9-26.7,22.9
			c-3.6,1.8-14.2,21.6-23.5,31.7c-4.5,4.9-10.6,8.9-16.5,11.5c-2.8,1.2-10.6,1.3-9.5,0c3-3.7,15.7-9,20.6-16
			c4.3-6.2,19.1-27.1,24.2-31.8c0,0,15.1-16.8,23.4-21.5c7.5-4.3,18.6-7.8,35.8-7.1C341.3,451.9,348.9,441.5,348.9,441.5
			L348.9,441.5z"/>
		<path class="st1" d="M448.6,486h9.5c0,0-12.8,18.7-29.4,16.8c-10-1.1-22.1,0.2-28.3,3.4c-9.2,4.7-26.7,22.9-26.7,22.9
			c-3.6,1.8-14.2,21.6-23.5,31.7c-4.5,4.9-10.6,8.9-16.5,11.5c-2.8,1.2-10.6,1.3-9.5,0c3-3.7,15.7-9,20.6-16
			c4.3-6.2,19.1-27.1,24.2-31.8c0,0,15.1-16.8,23.4-21.5c7.5-4.3,18.6-7.8,35.8-7.1C441,496.4,448.6,486,448.6,486L448.6,486z"/>
		<path class="st1" d="M164.6,126.8h6.3l6.5,46.1h-6.3L164.6,126.8L164.6,126.8z"/>
		<path class="st1" d="M167.1,164.3h13.5l14,90.7h-13.5L167.1,164.3L167.1,164.3z"/>
		<path class="st1" d="M175.4,151.3c0,4.3-2,7.9-4.4,7.9c-2.4,0-4.4-3.5-4.4-7.9l0,0c0-4.3,2-7.9,4.4-7.9
			C173.5,143.4,175.4,146.9,175.4,151.3z"/>
		<rect x="137" y="149.8" class="st1" width="36.6" height="3.2"/>
	</g>
	<path class="st2" d="M344.9,156.1l17.9,9.2l3.2,39.4l-21.5-3.2L344.9,156.1L344.9,156.1z"/>
	<path class="st2" d="M100,137.8l4-137.1l11.4,3.3l1.8,131.8l8.3,2.9c9.7-3.4,20-4,21.9,10.6l158.2,78.3
		c8.1-16.2,13.4-22.2,24.4-28.2c18,0.2,36,0.4,53.9,0.5c84,0.4,126.4,30.2,115.2,36.8l-10.8,2.7l4.2,28.2
		c53.4,6.5,36.9,38.3,40.1,54.9c14,1.1,12.5,0.9,22.2,3.4c9.2,2.4,17,3.8,23.9,10c7.5,6.9,15.3,22.7,19.9,41.8
		c5.5,22.9,7.3,50.4,13.3,71c4.8,7.7,7.1,16.7,9.1,26.2c-5,21-7.9,43.4-58.5,48.8c-53-0.8-92.4-2-161.4-34.5l-66.8-32
		c-41.2-19.1-44.1-104.1-45.9-168.8L126.7,175.8l-27.9-9.8L100,137.8L100,137.8L100,137.8z"/>
	
		<linearGradient id="SVGID_1_" gradientUnits="userSpaceOnUse" x1="-233.4963" y1="704.9146" x2="-232.392" y2="705.6408" gradientTransform="matrix(129.1472 0 0 -56.3394 30493.7969 39988.9844)">
		<stop  offset="0" style="stop-color:#777672"/>
		<stop  offset="0.6068" style="stop-color:#FFFFFF"/>
		<stop  offset="1" style="stop-color:#5A4C4C"/>
	</linearGradient>
	<path class="st3" d="M491.3,270c-6.4,8.4-40,7.5-75.1-1.9s-58.3-23.8-51.9-32.2c3.8-4.9,7.9-15.3,25.1-16.4
		c12-0.8,34.8,5.7,49.2,9.6c21.1,5.7,38.8,2,47.4,8.9C491.7,242.4,493.9,266.6,491.3,270L491.3,270z"/>
	<path class="st4" d="M439.1,335c7.5-7,44.1-14.5,73.2-5.1c10.9,3.5,17.8,14.8,36.6,102c0.5,2.3-18.6,0.7-41.1,2.3
		c-15.8,1.1-33.2,5.8-46.8,5.8c-21.5,0-25.3-3.6-25.3-3.6S427.8,345.5,439.1,335L439.1,335z"/>
</g>
<path d="M540.5,432.1c-23.5-0.3-51.7,4.4-73.8,8c-3.8,0.6-9.6,0.4-15.3-0.2c-6.1-1.5-11-2.3-14.2-1.8c-1.8-0.3-3.2-0.5-3.2-0.5
	s-0.5,1.6-1,3.9c-0.7,1.8-1.1,4.3-1.3,7.1c-7.5,13.8-35.8,24.9-42.1,35.5c7.3,6.7,25.6,12.5,36.1,16.1c17.8,6.1,30.4,11.7,44.7,14.5
	c9.3,2,24.7,4.8,39,6.2c9,0.9,28.3,1.3,32.5,1.7c43.8,4,62.6-9.8,69-17.7c5-4.6,13.1-25.7,10.4-33.7c-1.1-3.6-2.5-10.2-4.1-13.8
	c-2.1-4.7-3.9-5.7-5.8-8.5c-3.9-5.7-42.4-14.6-61.1-16.1C547.1,432.2,543.8,432.1,540.5,432.1L540.5,432.1z"/>
<g>
	<path class="st2" d="M500.5,233.3c0,10.7-42.6,8.7-74.4,3.1c-31.2-5.5-58-19.4-58-30.1s21.8-8.7,54.1-4.8
		C453.7,205.3,500.5,222.5,500.5,233.3L500.5,233.3z"/>
	
		<radialGradient id="SVGID_2_" cx="264.0079" cy="315.0991" r="22.404" gradientTransform="matrix(1 0 0 -0.3336 0 412.244)" gradientUnits="userSpaceOnUse">
		<stop  offset="0" style="stop-color:#777672"/>
		<stop  offset="0.6068" style="stop-color:#FFFFFF"/>
		<stop  offset="1" style="stop-color:#5A4C4C"/>
	</radialGradient>
	<path class="st5" d="M468.7,224.5c-15.2,3.7-40.5,3.8-56.3,0.3s-16.4-9.4-1.1-13.1l0,0c15.2-3.7,40.5-3.8,56.3-0.3
		C483.4,214.9,483.9,220.8,468.7,224.5z"/>
</g>
<linearGradient id="SVGID_3_" gradientUnits="userSpaceOnUse" x1="-226.057" y1="705.4831" x2="-230.8067" y2="705.7085" gradientTransform="matrix(18.394 0 0 -84.814 4595.5981 60005.2852)">
	<stop  offset="0" style="stop-color:#777672"/>
	<stop  offset="0.6068" style="stop-color:#FFFFFF"/>
	<stop  offset="1" style="stop-color:#5A4C4C"/>
</linearGradient>
<linearGradient id="SVGID_4_" gradientUnits="userSpaceOnUse" x1="-226.057" y1="705.4827" x2="-220.8446" y2="705.2385" gradientTransform="matrix(18.394 0 0 -84.814 4595.5981 60005.2852)">
	<stop  offset="0" style="stop-color:#777672"/>
	<stop  offset="0.6068" style="stop-color:#FFFFFF"/>
	<stop  offset="1" style="stop-color:#5A4C4C"/>
</linearGradient>
<path class="st6" d="M450,130.2h6.4l-12,84.8H438L450,130.2z"/>
<g>
	<polygon class="st7" points="425.9,113.8 483.6,123.2 481.1,126.4 423.4,117 	"/>
	<path class="st1" d="M439.9,112.4l-2.3,16.4c-0.1,0.3-0.2,0.5-0.2,0.8c0,0.2,0.1,0.3,0.1,0.4l-0.2,1.2h1c2.2,1.9,8.2,3.3,15.2,3.3
		c7,0,13-1.4,15.2-3.3c0,0,0,0,0,0c0.6-0.5,0.9-1.1,0.9-1.6c0-0.4-0.2-0.8-0.5-1.2l2.2-16L439.9,112.4L439.9,112.4z"/>
	
		<linearGradient id="SVGID_5_" gradientUnits="userSpaceOnUse" x1="-233.6335" y1="705.9833" x2="-233.7006" y2="704.6844" gradientTransform="matrix(442.564 0 0 -100.355 104090.2188 70964.9062)">
		<stop  offset="0" style="stop-color:#FFFFFF"/>
		<stop  offset="1" style="stop-color:#000000"/>
	</linearGradient>
	<path class="st8" d="M479.6,116.5l422.6,81.5l-19.9,18.9l-422.6-81.5L479.6,116.5z"/>
	<path class="st2" d="M471.6,112.9c0.1,2.8-7.1,5-16,5s-16.2-2.2-16.3-4.9c0,0,0-0.1,0-0.1c-0.1-2.8,7.1-5,16-5
		S471.5,110.1,471.6,112.9C471.6,112.9,471.6,112.9,471.6,112.9z"/>
	<g>
		<path class="st4" d="M525.4,331.4c3.5-5.4,39.3-1.6,53.1,5.7c3,1.6,15,17.6,20.5,42c3.5,15.2,7.8,39,11.6,67.7
			c0.2,1.7-10.7-5-27.6-8.8c-15.9-3.9-19.8-4-29.3-5.3c0,0-2.7-25.9-10-48.4c-3.4-10.4-5.6-21.4-9.2-29.9
			C529.4,342.1,523.7,333.9,525.4,331.4L525.4,331.4z"/>
		<path class="st4" d="M335.4,308.1c4.4-0.1,30.8,7.8,32.8,10.7c1.6,2.4-5.6,19.3-8.4,36c-2.6,16-0.9,39.1-3.7,40.8
			c-2.2,1.4-13.5-4.5-21.1-6.6c-15-4.1-16.4-4.1-17.6-8.9c-1.2-4.9-1.7-22.5,1-38.4C321.5,323.7,331,308.2,335.4,308.1L335.4,308.1z
			"/>
		<path class="st4" d="M413.5,331.8c4.4-0.1,12,2.4,13.9,5.6c1.6,2.7-5.1,20.5-4.7,39.8c0.4,17.9,2.2,41.6,1.9,41.6
			c-0.3,0,0.9,1.2-6.7-1.1c-14.9-4.6-18.8-4-19.9-9.4c-1.2-5.4,0.7-27.6,3.4-45.2C404.4,343.2,409,331.9,413.5,331.8L413.5,331.8z"
			/>
	</g>
	
		<radialGradient id="SVGID_6_" cx="-12.6576" cy="433.4888" r="49.042" gradientTransform="matrix(-8.830300e-02 1.0807 1.8846 0.154 -648.1533 262.2045)" gradientUnits="userSpaceOnUse">
		<stop  offset="0" style="stop-color:#777672"/>
		<stop  offset="0.6068" style="stop-color:#FFFFFF"/>
		<stop  offset="1" style="stop-color:#5A4C4C"/>
	</radialGradient>
	<path class="st9" d="M329.4,200c13.2-7.6,50.6,4.8,50.6,4.8l21.8,7.6l-15.4,8.6L374,267.3c0,0-36.6-19.3-58.8-27.8
		c-11.1-4.2-10.9-6.8-10.1-9.2C311.7,210.6,319.5,205.7,329.4,200L329.4,200z"/>
</g>
<linearGradient id="SVGID_7_" gradientUnits="userSpaceOnUse" x1="-229.9226" y1="704.4452" x2="-229.4187" y2="705.3598" gradientTransform="matrix(34.6576 0 0 -33.0639 8290.6738 23547.7168)">
	<stop  offset="0" style="stop-color:#777672"/>
	<stop  offset="0.6068" style="stop-color:#FFFFFF"/>
	<stop  offset="1" style="stop-color:#5A4C4C"/>
</linearGradient>
<path class="st10" d="M325.4,212.7l28.3,3.2l-4,29.9L319,227.4L325.4,212.7L325.4,212.7z"/>
<g>
	<path class="st4" d="M363.7,214.3c4.7-5.9,20.7-7.6,20.7-7.6l16.7,5.6l-9,40.6l-12.9,17.6l-25.1-12
		C354.1,258.5,355.5,224.4,363.7,214.3L363.7,214.3z"/>
	<path class="st1" d="M149.6,49.3h13.5l14,90.7h-13.5C163.6,140,149.6,49.3,149.6,49.3z"/>
	<path class="st4" d="M385,320.9c4.4-0.1,12,2.5,13.9,5.9c1.6,2.8-3.8,21.4-6.6,41.4c-2.7,18.5-2.3,38.5-2.6,40.4
		c-5.3-1-19.5-4.8-20.4-9.1c-1.2-5.7,1-27.5,3.7-45.9C375.9,332.8,380.6,320.9,385,320.9L385,320.9z"/>
	<g>
		<polygon class="st0" points="260.2,466.4 407.9,534.8 405.6,539.8 257.9,471.5 		"/>
		<path class="st1" d="M175.4,494.6c15.7,7.1,37.5,22.6,49.3,29.5c4.8,2.8,94.9,44.5,142,67.3c3.4,1.7,6.3-1.6,13.6-7.5
			c1.4-1.2,6.1-0.7,9.4,0.9c3.4,1.6-8.8,12-10.5,12.9c-2.5,1.2-12,4-16,2.1c-47.8-23-96.8-44.8-144-69.3
			c-16.5-8.6-31.3-21.4-47.1-30.1C170.3,499.4,173.6,493.8,175.4,494.6L175.4,494.6z"/>
		<path class="st1" d="M390.7,586.4c-1.2,1.2-4.5,1.8-7.5,1.3c-2.9-0.5-4.3-1.9-3.1-3s4.5-1.8,7.5-1.3
			C390.5,583.9,391.9,585.3,390.7,586.4z"/>
	</g>
	<path class="st2" d="M101.5,212.7h103.6l20.7,16.7l-102.8-3.2L101.5,212.7L101.5,212.7z"/>
	<path class="st2" d="M101.5,138.6l16.7,6.4l9.6,83.7l-25.5-15.9L101.5,138.6L101.5,138.6z"/>
	
		<linearGradient id="SVGID_8_" gradientUnits="userSpaceOnUse" x1="-233.6708" y1="705.2178" x2="-233.6377" y2="705.9836" gradientTransform="matrix(442.564 0 0 -100.355 103631.6406 70872.5078)">
		<stop  offset="0" style="stop-color:#FFFFFF"/>
		<stop  offset="1" style="stop-color:#000000"/>
	</linearGradient>
	<path class="st11" d="M21,24.1l422.6,81.5l-19.9,18.9L1.1,42.9L21,24.1L21,24.1z"/>
</g>
<g>
	<g class="st12">
		<path class="st13" d="M567.2,483c0,1.4-1.9,2.6-4.2,2.6c-2.3,0-4.2-1.1-4.2-2.6c0,0,0,0,0,0c0-1.4,1.9-2.6,4.2-2.6
			C565.3,480.4,567.2,481.6,567.2,483C567.2,483,567.2,483,567.2,483z"/>
	</g>
	<g class="st14">
		<path d="M567.2,483c0,1.4-1.9,2.6-4.2,2.6c-2.3,0-4.2-1.1-4.2-2.6c0,0,0,0,0,0c0-1.4,1.9-2.6,4.2-2.6
			C565.3,480.4,567.2,481.6,567.2,483C567.2,483,567.2,483,567.2,483z"/>
	</g>
</g>
<text transform="matrix(0.9178 0.397 -0.397 0.9178 309.8032 418.4612)" class="st13 st15 st16">H.E.R.O.S.</text>
<text transform="matrix(0.9178 0.397 -0.397 0.9178 309.8032 418.4612)" class="st17 st15 st16">H.E.R.O.S.</text>
</svg>
